<mxfile host="app.diagrams.net" modified="2024-03-06T03:42:53.994Z" agent="Mozilla/5.0 (Windows NT 10.0; Win64; x64) AppleWebKit/537.36 (KHTML, like Gecko) Chrome/122.0.0.0 Safari/537.36" version="23.1.1" etag="ypF93zbjKgcMMRWC_Nx0" type="github">
  <diagram name="Page-1" id="K99FTIJ-5uR69VDX7AQZ">
    <mxGraphModel>
      <root>
        <mxCell id="0" />
        <mxCell id="1" parent="0" />
      </root>
    </mxGraphModel>
  </diagram>
</mxfile>
